<svg xmlns="http://www.w3.org/2000/svg" xmlns:xlink="http://www.w3.org/1999/xlink" viewBox="0 0 96 96">
  <defs>
    <path id="a" d="M7.97078079.17142857H83.7265824c1.7710502 0 3.4726474.7118927 4.7228004 1.96204575 1.2501531 1.25015304 1.9620458 2.95175023 1.9620458 4.72280038v37.8865824c0 11.8243642-4.6880739 23.1625578-13.057154 31.5142746C69.0025577 84.6088486 57.6643642 89.3142857 45.84 89.3142857c-11.8243642 0-23.1625577-4.6880739-31.5142746-13.057154C5.97400857 67.9054149 1.26857143 56.5672213 1.26857143 44.7428571V6.8562747c0-1.77105015.7118927-3.47264734 1.96204574-4.72280038C4.49813345.86595804 6.19973065.17142857 7.97078079.17142857z"/>
    <path id="c" d="M7.93714286 0c4.38857144 0 7.93714284 3.56571429 7.93714284 7.93714286 0 4.38857144-3.5657143 7.93714284-7.93714284 7.93714284C3.54857143 15.8742857 0 12.3085714 0 7.93714286 0 3.56571429 3.54857143 0 7.93714286 0z"/>
  </defs>
  <g fill="none" fill-rule="evenodd">
    <path fill="#C4D1DE" fill-rule="nonzero" d="M7.2 0h81.6c1.9028571 0 3.7371429.75428571 5.0914286 2.10857143C95.2457143 3.46285714 96 5.29714286 96 7.2V48c0 12.7371429-5.0571429 24.9428571-14.0571429 33.9428571C72.9428571 90.9428571 60.7371429 96 48 96c-12.7371429 0-24.9428571-5.0571429-33.9428571-14.0571429C5.05714286 72.9428571 0 60.7371429 0 48V7.2c0-1.90285714.75428571-3.73714286 2.10857143-5.09142857C3.44571429.75428571 5.28 0 7.2 0z"/>
    <path fill="#435FEE" fill-rule="nonzero" d="M10.1307808 3.42857143h75.7558016c1.7710502 0 3.4726474.7118927 4.7228004 1.96204574 1.2501531 1.25015305 1.9620458 2.95175024 1.9620458 4.72280043V48c0 11.8243642-4.6880739 23.1625577-13.057154 31.5142746C71.1625577 87.8659914 59.8243642 92.5714286 48 92.5714286c-11.8243642 0-23.1625577-4.6880739-31.5142746-13.057154C8.13400857 71.1625577 3.42857143 59.8243642 3.42857143 48V10.1134176c0-1.77105019.7118927-3.47264738 1.96204574-4.72280043C6.65813345 4.1231009 8.35973065 3.42857143 10.1307808 3.42857143z"/>
    <g transform="translate(2.16 3.257143)">
      <mask id="b" fill="#fff">
        <use xlink:href="#a"/>
      </mask>
      <use fill="#435FEE" fill-rule="nonzero" xlink:href="#a"/>
      <g mask="url(#b)">
        <g transform="translate(-39.428571)">
          <circle cx="84.6685714" cy="132.651429" r="84.6685714" fill="#B9E2FE"/>
          <path fill="#FFF" d="M53.0742857 26.6742857L76.08 66.5314286l35.605714-20.5542857-3.188571-5.52S103.68 34.1485714 96.8742857 35.2457143c-5.0057143.8057143-9.9428571 1.7657143-12.4114286 2.2628571-.9771428.2057143-1.9542857-.2571428-2.4514285-1.1142857-2.7257143-4.8-11.2971429-19.92-11.2971429-19.92l-17.64 10.2z"/>
          <path fill="#323C45" d="M106.714286 73.56c0-.4114286-.154286-.7885714-.445715-1.08-.291428-.2914286-.685714-.4457143-1.08-.4457143H69.2571429c-.2057143 0-.3942858.0857143-.5485715.2228572-.1371428.1371428-.2228571.3428571-.2228571.5485714 0 .2057143.0857143.3942857.2228571.5485714.1371429.1371429.3428572.2228572.5485715.2228572h35.9314281c.411429 0 .788572-.1542858 1.08-.4457143.291429-.2914286.445715-.6857143.445715-1.08V73.56z"/>
          <path fill="#FFF" d="M75.08417498 64.74545978l3.17698287-1.83465261 1.51744631 2.62769143-3.17698287 1.83465261zM79.71350748 62.07266572l3.17698288-1.83465261 1.5174463 2.62769143-3.17698287 1.83465261zM84.34283994 59.40021458l3.17698287-1.83465262 1.51744631 2.62769143-3.17698287 1.83465261zM93.58587422 54.04391997l3.17698283-1.83428572 1.51714284 2.62769137-3.17698283 1.83428572zM88.96342784 56.7129174l3.17698287-1.83465261 1.51744631 2.62769143-3.17698287 1.83465261zM102.85997307 48.71609334l3.1773497-1.83391883 1.51683945 2.6279949-3.1773497 1.83391884zM98.23049996 51.38805795l3.1773496-1.83391879 1.5168394 2.62799482-3.1773496 1.83391879zM107.48944602 46.04310026l3.1773497-1.83391884 1.5168394 2.62799482-3.1773497 1.83391884z"/>
          <g transform="translate(97.268571 11.074286)">
            <mask id="d" fill="#fff">
              <use xlink:href="#c"/>
            </mask>
            <use fill="#4FB3F6" xlink:href="#c"/>
            <g fill="#B9E2FE" mask="url(#d)">
              <path d="M1.79999971 2.91428614c2.19428572-.39428571 4.38857143 1.45714286 4.25142858 3.24-.13714286 1.78285715-2.4 4.59428572-2.4 4.59428572s3.17142857 3.68571424.56571428 4.21714284c-2.62285714.5142857-9.27428571-10.81714284-2.41714286-12.05142856zM14.0228569 2.86285757s-4.1828572 1.37142857-3.7542858 2.60571429c.4285715 1.23428571 3.1028572 2.52 2.8285715 3.44571428-.2742857.94285715-2.5885715 2.10857143-2.8285715 4.16571426-.2571428 2.0571429 4.0628572 3.36 4.0628572 3.36s7.68-13.9885714-.3085714-13.57714283z"/>
            </g>
          </g>
          <path fill="#4FB3F6" d="M57.5657143 58.7314286c2.8285714-.8742857 5.3657143-.8571429 5.64.0514285.2742857.9085715-1.8 2.3485715-4.6285714 3.2228572-2.8285715.8742857-5.3657143.8571428-5.64-.0514286-.2742858-.9085714 1.8-2.3485714 4.6285714-3.2228571zM119.28 59.2971429c1.388571.6342857 2.314286 1.6114285 2.04 2.1942857-.257143.5828571-1.611429.5485714-3-.0685715-1.388571-.6342857-2.314286-1.6114285-2.04-2.1942857.257143-.5828571 1.611429-.5485714 3 .0685715zM104.142857 60.2057143c1.988572.2571428 3.514286 1.1314286 3.411429 1.9714286-.102857.84-1.8 1.32-3.788572 1.0628571-1.988571-.2571429-3.514285-1.1314286-3.411428-1.9714286.102857-.84 1.8-1.32 3.788571-1.0628571z"/>
          <path fill="#FFF" d="M53.0742857 26.6742857s-9.1028571-4.0971428-12.4114286-12.6171428V0h28.2685715s3.9771428 10.4057143 1.7828571 16.4914286c-6.7371428 3.9257143-17.64 10.1828571-17.64 10.1828571z"/>
          <path fill="#FF7968" d="M66.7714286 35.7771429c1.5771428 0 2.8628571 1.2857142 2.8628571 2.8628571s-1.2857143 2.8628571-2.8628571 2.8628571c-1.5771429 0-2.8628572-1.2857142-2.8628572-2.8628571s1.2857143-2.8628571 2.8628572-2.8628571z"/>
          <path fill="#FBBE2E" d="M77.4342857 28.3542857s-4.1828571 2.4171429-6.3257143 3.6514286c-.3257143.1885714-.5657143.4971428-.6685714.8571428-.1028571.36-.0514286.7542858.1371429 1.08.1885714.3257143.4971428.5657143.8571428.6685715.36.1028571.7542857.0514285 1.08-.1371429C74.6571429 33.24 78.84 30.8228571 78.84 30.8228571l-1.4057143-2.4685714zM79.7314286 32.3314286s-4.1828572 2.4171428-6.3257143 3.6514285C73.08 36.1714286 72.84 36.48 72.7371429 36.84c-.1028572.36-.0514286.7542857.1371428 1.08.1885714.3257143.4971429.5657143.8571429.6685714.36.1028572.7542857.0514286 1.08-.1371428C76.9542857 37.2171429 81.1371429 34.8 81.1371429 34.8l-1.4057143-2.4685714z"/>
          <path stroke="#FBBE2E" stroke-linecap="round" stroke-linejoin="round" stroke-width=".4236" d="M109.611429 42.3771429L73.9542857 62.9657143M70.5942857 16.8342857l-17.2628571 9.96M92.4857143 35.9828571s-3.8914286 6.8914286 1.5085714 15.4114286"/>
        </g>
      </g>
    </g>
  </g>
</svg>
