<svg xmlns="http://www.w3.org/2000/svg" xmlns:xlink="http://www.w3.org/1999/xlink" viewBox="0 0 96 96">
  <defs>
    <path id="a" d="M6.79243492.06015038H82.5482366c1.7710501 0 3.4726473.7118927 4.7228004 1.96204574 1.250153 1.25015304 1.9620457 2.95175024 1.9620457 4.72280038v37.8865824c0 11.8243642-4.6880739 23.1625578-13.057154 31.5142746-8.3517168 8.3517169-19.6899104 13.057154-31.5142746 13.057154-11.8243641 0-23.1625577-4.6880739-31.5142745-13.057154C4.79566271 67.7941367.09022556 56.4559431.09022556 44.6315789V6.7449965c0-1.77105014.7118927-3.47264734 1.96204575-4.72280038C3.31978759.77204308 5.02138478.06015038 6.79243492.06015038z"/>
  </defs>
  <g fill="none" fill-rule="evenodd">
    <path fill="#C4D1DE" fill-rule="nonzero" d="M7.2 0h81.6c1.9028571 0 3.7371429.75428571 5.0914286 2.10857143C95.2457143 3.46285714 96 5.29714286 96 7.2V48c0 12.7371429-5.0571429 24.9428571-14.0571429 33.9428571C72.9428571 90.9428571 60.7371429 96 48 96c-12.7371429 0-24.9428571-5.0571429-33.9428571-14.0571429C5.05714286 72.9428571 0 60.7371429 0 48V7.2c0-1.90285714.75428571-3.73714286 2.10857143-5.09142857C3.46285714.75428571 5.28 0 7.2 0z"/>
    <path fill="#FF7968" fill-rule="nonzero" d="M11.8568421 4.69894737h73.4821053c1.7178947 0 3.368421.69052631 4.5810526 1.90315789 1.2126316 1.21263158 1.9031579 2.8631579 1.9031579 4.58105264v36.7494737c0 11.4694737-4.5473684 22.4673684-12.6652632 30.568421-8.1010526 8.1010527-19.0989473 12.6652632-30.568421 12.6652632-11.4694737 0-22.4673684-4.5473684-30.5684211-12.6652632C9.92 70.4 5.35578947 59.4021053 5.35578947 47.9326316V11.1831579c0-1.71789474.69052632-3.36842106 1.9031579-4.58105264 1.22947368-1.21263158 2.88000003-1.90315789 4.59789473-1.90315789z"/>
    <g transform="translate(3.338346 3.368421)">
      <mask id="b" fill="#fff">
        <use xlink:href="#a"/>
      </mask>
      <use fill="#FF7968" fill-rule="nonzero" xlink:href="#a"/>
      <g mask="url(#b)">
        <g transform="translate(-16.81203 -18.526316)">
          <path fill="#435FEE" d="M62.08 33.8357895c16.1515789 0 29.2547368 13.1031579 29.2547368 29.2547368 0 16.151579-13.1031579 29.2547369-29.2547368 29.2547369S32.8252632 79.2421053 32.8252632 63.0905263c0-16.1515789 13.1031579-29.2547368 29.2547368-29.2547368zm0-32.43789476c34.0547368 0 61.692632 27.63789476 61.692632 61.69263156 0 34.0547369-27.6378952 61.6926317-61.692632 61.6926317S.38736842 97.1452632.38736842 63.0905263C.38736842 29.0357895 28.0252632 1.39789474 62.08 1.39789474z"/>
          <path fill="#FFF" d="M58.3242105 56.8926316c0-2.1389474-1.0105263-6.08-7.3263158-6.1978948-5.2547368-.0842105-7.1073684 1.9031579-8.8252631 3.8905264-2.2736842 2.6442105-3.7726316 9.7515789.7747368 11.6378947 8.6568421 3.5705263 12.2273684 5.2042105 16.5389474 7.2589474 4.3115789 2.0547368 2.6105263 5.76 0 4.8-2.9810526-1.111579-7.831579-2.4589474-11.5705263-3.4526316-9.1284211-2.4252632-10.1221053-2.3410526-19.5031579 1.1452631-5.9957895 2.2231579-15.5452632 4.8505264-24.64000002 4.6484211-3.4863158-5.1873684-6.08-24.2863158-.47157895-24.6568421 4.00842105-.2526316 6.65263158-.5389474 9.65052627-1.1452632 4.2105264-.8589473 6.4-3.8231579 8.471579-7.0063158 3.2-4.8842105 7.8652632-14.2315789 10.1557895-17.1452631 2.2905263-2.9136842 4.648421-.7747369 3.8231579 1.3810526-.9263158 2.4252632-4.0084211 9.5157895-4.0084211 9.5157895s7.8147369-9.0105263 10.6273684-12.8336842c2.0210527-2.7452632 5.7431579-.4378948 3.9410527 2.1052631-1.8863158 2.6778948-8.5052632 13.8273685-8.5052632 13.8273685s11.1663158-11.8905264 12.9347368-13.8442106c1.751579-1.92 4.9852632.4547369 2.7621053 3.3684211-2.2568421 2.9642105-8.4547368 12.3789474-8.4547368 12.3789474s6.9052631-2.1726316 11.2336842-.3368422c5.5073684 2.3410527 6.1305263 5.9789474 6.1305263 9.92.0168421 3.9410527-3.7389474 2.4252632-3.7389474.7410527z"/>
          <path fill="#FFF" d="M65.8357895 56.8926316c0-2.1389474 1.0105263-6.08 7.3263158-6.1978948 5.2547368-.0842105 7.1073684 1.9031579 8.8252631 3.8905264 2.2736842 2.6442105 3.7726316 9.7515789-.7747368 11.6378947C72.5557895 69.7936842 69.12 71.3094737 64.8084211 73.3810526c-4.311579 2.0547369-2.6105264 5.76 0 4.8 2.9810526-1.1115789 7.68-2.3578947 11.4357894-3.3515789 9.1284211-2.4252632 10.1221053-2.3410526 19.5031579 1.1452631 5.9957896 2.2231579 15.5452636 4.8505264 24.6399996 4.6484211 3.486316-5.1873684 6.08-24.2863158.471579-24.6568421-4.008421-.2526316-6.652631-.5389474-9.650526-1.1452632-4.210526-.8589473-6.4-3.8231579-8.471579-7.0063158-3.1999999-4.8842105-7.8652631-14.2315789-10.1557894-17.1452631-2.2905263-2.9136842-4.648421-.7747369-3.8231579 1.3810526.9263158 2.4252632 4.0084211 9.5157895 4.0084211 9.5157895s-7.8147369-9.0105263-10.6273684-12.8336842c-2.0210527-2.7452632-5.7431579-.4378948-3.9410527 2.1052631 1.8863158 2.6778948 8.5052632 13.8273685 8.5052632 13.8273685S75.5368421 32.7747368 73.7684211 30.8210526c-1.751579-1.92-4.9852632.4547369-2.7621053 3.3684211 2.2568421 2.9642105 8.4547368 12.3789474 8.4547368 12.3789474s-6.9052631-2.1726316-11.2336842-.3368422c-5.5073684 2.3410527-6.1305828 5.9789474-6.1305828 9.92-.0167856 3.9410527 3.7390039 2.4252632 3.7390039.7410527z"/>
          <path fill="#FEDD8E" d="M123.570526 55.8989474s-6.652631-.2526316-8.673684-.5389474c-2.021053-.2863158-6.652631 5.5578947-7.36 11.2168421-.707368 5.6421053 2.206316 12.9684211 5.03579 13.5410526 2.829473.5726316 9.667368.5389474 9.667368.5389474l1.330526-24.7578947z"/>
          <path stroke="#323C45" stroke-linecap="round" stroke-linejoin="round" stroke-width=".4236" d="M37.4736842 44.6821053l-4.8168421 4.6315789M86.1305263 44.6821053l4.8336842 4.6315789M44.7157895 46.5852632s-4.16 1.4315789-6.4336842 3.6042105M78.8884211 46.5852632s4.16 1.4315789 6.4336842 3.6042105M31.4105263 41.5831579l-4.648421 5.4063158M92.2105263 41.5831579l4.631579 5.4063158"/>
          <path fill="#FFF" d="M90.1726316 81.5157895c.3873684 0 .7073684.32.7073684.7073684s-.32.7073684-.7073684.7073684-.7073684-.32-.7073684-.7073684c0-.4042105.32-.7073684.7073684-.7073684zM66.5768421 98.3073684c.3873684 0 .7073684.32.7073684.7073684 0 .3873685-.32.7073685-.7073684.7073685s-.7073684-.32-.7073684-.7073685c0-.3873684.32-.7073684.7073684-.7073684zM28.3789474 25.6c.3873684 0 .7073684.32.7073684.7073684s-.32.7073684-.7073684.7073684c-.3873685 0-.7073685-.32-.7073685-.7073684s.32-.7073684.7073685-.7073684zM36.0252632 84.0252632c.3873684 0 .7073684.32.7073684.7073684s-.32.7073684-.7073684.7073684c-.3873685 0-.7073685-.32-.7073685-.7073684s.32-.7073684.7073685-.7073684zM94.8210526 23.7642105c.3873685 0 .7073685.32.7073685.7073684 0 .3873685-.32.7073685-.7073685.7073685-.3873684 0-.7073684-.32-.7073684-.7073685 0-.3873684.32-.7073684.7073684-.7073684zM57.8526316 26.0884211c.168421 0 .3031579.1347368.3031579.3031578 0 .1684211-.1347369.3031579-.3031579.3031579-.1684211 0-.3031579-.1347368-.3031579-.3031579-.0168421-.168421.1347368-.3031578.3031579-.3031578z"/>
          <circle cx="79.3094737" cy="79.0568421" r="1" fill="#FFF"/>
          <circle cx="49.1115789" cy="81.5494737" r="1" fill="#FFF"/>
          <path fill="#FFF" d="M72.2694737 25.0105263c.168421 0 .3031579.1347369.3031579.3031579 0 .1684211-.1347369.3031579-.3031579.3031579-.1684211 0-.3031579-.1347368-.3031579-.3031579 0-.168421.1347368-.3031579.3031579-.3031579zM61.76 39.0905263c.1684211 0 .3031579.1347369.3031579.3031579 0 .1684211-.1347368.3031579-.3031579.3031579s-.3031579-.1347368-.3031579-.3031579c0-.168421.1347368-.3031579.3031579-.3031579z"/>
        </g>
      </g>
    </g>
  </g>
</svg>
